<?xml version="1.0" encoding="UTF-8"?>
<svg width="800" height="600" viewBox="0 0 800 600" fill="none" xmlns="http://www.w3.org/2000/svg">
  <!-- Background Elements -->
  <circle cx="400" cy="300" r="250" fill="#F3F4F6"/>
  <circle cx="400" cy="300" r="200" fill="#E5E7EB"/>
  
  <!-- Team Members -->
  <!-- Person 1 -->
  <g transform="translate(250, 200)">
    <circle cx="0" cy="0" r="40" fill="#4F46E5"/>
    <circle cx="0" cy="-15" r="20" fill="#F9FAFB"/>
    <path d="M-20 40 Q0 60 20 40" stroke="#F9FAFB" stroke-width="4"/>
  </g>
  
  <!-- Person 2 -->
  <g transform="translate(400, 180)">
    <circle cx="0" cy="0" r="45" fill="#7C3AED"/>
    <circle cx="0" cy="-15" r="22" fill="#F9FAFB"/>
    <path d="M-25 45 Q0 70 25 45" stroke="#F9FAFB" stroke-width="4"/>
  </g>
  
  <!-- Person 3 -->
  <g transform="translate(550, 200)">
    <circle cx="0" cy="0" r="40" fill="#EC4899"/>
    <circle cx="0" cy="-15" r="20" fill="#F9FAFB"/>
    <path d="M-20 40 Q0 60 20 40" stroke="#F9FAFB" stroke-width="4"/>
  </g>
  
  <!-- Connection Lines -->
  <path d="M290 200 L310 180" stroke="#9CA3AF" stroke-width="2" stroke-dasharray="4 4"/>
  <path d="M410 180 L430 200" stroke="#9CA3AF" stroke-width="2" stroke-dasharray="4 4"/>
  
  <!-- Decorative Elements -->
  <circle cx="200" cy="150" r="10" fill="#4F46E5" opacity="0.3"/>
  <circle cx="600" cy="150" r="15" fill="#7C3AED" opacity="0.3"/>
  <circle cx="300" cy="400" r="12" fill="#EC4899" opacity="0.3"/>
  <circle cx="500" cy="400" r="8" fill="#4F46E5" opacity="0.3"/>
  
  <!-- Tech Elements -->
  <g transform="translate(350, 300)">
    <rect x="-30" y="-20" width="60" height="40" rx="10" fill="#F9FAFB" stroke="#9CA3AF" stroke-width="2"/>
    <circle cx="-10" cy="0" r="5" fill="#4F46E5"/>
    <circle cx="10" cy="0" r="5" fill="#7C3AED"/>
  </g>
  
  <!-- Connection Points -->
  <circle cx="350" cy="300" r="5" fill="#4F46E5"/>
  <circle cx="450" cy="300" r="5" fill="#7C3AED"/>
</svg> 